<mxfile host="app.diagrams.net" agent="Mozilla/5.0 (Windows NT 10.0; Win64; x64) AppleWebKit/537.36 (KHTML, like Gecko) Chrome/131.0.0.0 Safari/537.36" version="25.0.3">
  <diagram name="PÃ¡gina-1" id="QPO_CO3x7AYjeY3cbeSh">
    <mxGraphModel dx="2200" dy="1085" grid="1" gridSize="10" guides="1" tooltips="1" connect="1" arrows="1" fold="1" page="1" pageScale="1" pageWidth="827" pageHeight="1169" math="0" shadow="0">
      <root>
        <mxCell id="0" />
        <mxCell id="1" parent="0" />
        <mxCell id="mrt0JxKWjBjdY9cyOWCs-46" style="edgeStyle=orthogonalEdgeStyle;rounded=0;orthogonalLoop=1;jettySize=auto;html=1;exitX=0.5;exitY=1;exitDx=0;exitDy=0;exitPerimeter=0;entryX=0.5;entryY=0;entryDx=0;entryDy=0;" edge="1" parent="1" source="mrt0JxKWjBjdY9cyOWCs-1" target="mrt0JxKWjBjdY9cyOWCs-3">
          <mxGeometry relative="1" as="geometry" />
        </mxCell>
        <mxCell id="mrt0JxKWjBjdY9cyOWCs-1" value="&lt;font style=&quot;vertical-align: inherit;&quot;&gt;&lt;font style=&quot;vertical-align: inherit;&quot;&gt;INICIO&lt;/font&gt;&lt;/font&gt;" style="strokeWidth=2;html=1;shape=mxgraph.flowchart.start_1;whiteSpace=wrap;" vertex="1" parent="1">
          <mxGeometry x="350" y="10" width="100" height="60" as="geometry" />
        </mxCell>
        <mxCell id="mrt0JxKWjBjdY9cyOWCs-2" value="&lt;font style=&quot;vertical-align: inherit;&quot;&gt;&lt;font style=&quot;vertical-align: inherit;&quot;&gt;&lt;font style=&quot;vertical-align: inherit;&quot;&gt;&lt;font style=&quot;vertical-align: inherit;&quot;&gt;FIM&lt;/font&gt;&lt;/font&gt;&lt;/font&gt;&lt;/font&gt;" style="strokeWidth=2;html=1;shape=mxgraph.flowchart.start_1;whiteSpace=wrap;" vertex="1" parent="1">
          <mxGeometry x="350" y="1070" width="100" height="60" as="geometry" />
        </mxCell>
        <mxCell id="mrt0JxKWjBjdY9cyOWCs-45" style="edgeStyle=orthogonalEdgeStyle;rounded=0;orthogonalLoop=1;jettySize=auto;html=1;exitX=0.5;exitY=1;exitDx=0;exitDy=0;entryX=0.5;entryY=0;entryDx=0;entryDy=0;" edge="1" parent="1" source="mrt0JxKWjBjdY9cyOWCs-3" target="mrt0JxKWjBjdY9cyOWCs-4">
          <mxGeometry relative="1" as="geometry" />
        </mxCell>
        <mxCell id="mrt0JxKWjBjdY9cyOWCs-3" value="&lt;font style=&quot;vertical-align: inherit;&quot;&gt;&lt;font style=&quot;vertical-align: inherit;&quot;&gt;PRODUTO&lt;/font&gt;&lt;/font&gt;" style="shape=parallelogram;html=1;strokeWidth=2;perimeter=parallelogramPerimeter;whiteSpace=wrap;rounded=1;arcSize=12;size=0.23;" vertex="1" parent="1">
          <mxGeometry x="330" y="90" width="140" height="40" as="geometry" />
        </mxCell>
        <mxCell id="mrt0JxKWjBjdY9cyOWCs-44" style="edgeStyle=orthogonalEdgeStyle;rounded=0;orthogonalLoop=1;jettySize=auto;html=1;exitX=0.5;exitY=1;exitDx=0;exitDy=0;entryX=0.5;entryY=0;entryDx=0;entryDy=0;" edge="1" parent="1" source="mrt0JxKWjBjdY9cyOWCs-4" target="mrt0JxKWjBjdY9cyOWCs-5">
          <mxGeometry relative="1" as="geometry" />
        </mxCell>
        <mxCell id="mrt0JxKWjBjdY9cyOWCs-4" value="&lt;font style=&quot;vertical-align: inherit;&quot;&gt;&lt;font style=&quot;vertical-align: inherit;&quot;&gt;&lt;font style=&quot;vertical-align: inherit;&quot;&gt;&lt;font style=&quot;vertical-align: inherit;&quot;&gt;VALOR&lt;/font&gt;&lt;/font&gt;&lt;/font&gt;&lt;/font&gt;" style="shape=parallelogram;html=1;strokeWidth=2;perimeter=parallelogramPerimeter;whiteSpace=wrap;rounded=1;arcSize=12;size=0.23;" vertex="1" parent="1">
          <mxGeometry x="330" y="150" width="140" height="40" as="geometry" />
        </mxCell>
        <mxCell id="mrt0JxKWjBjdY9cyOWCs-43" style="edgeStyle=orthogonalEdgeStyle;rounded=0;orthogonalLoop=1;jettySize=auto;html=1;exitX=0.5;exitY=1;exitDx=0;exitDy=0;entryX=0.5;entryY=0;entryDx=0;entryDy=0;" edge="1" parent="1" source="mrt0JxKWjBjdY9cyOWCs-5" target="mrt0JxKWjBjdY9cyOWCs-6">
          <mxGeometry relative="1" as="geometry" />
        </mxCell>
        <mxCell id="mrt0JxKWjBjdY9cyOWCs-5" value="&lt;font style=&quot;vertical-align: inherit;&quot;&gt;&lt;font style=&quot;vertical-align: inherit;&quot;&gt;&lt;font style=&quot;vertical-align: inherit;&quot;&gt;&lt;font style=&quot;vertical-align: inherit;&quot;&gt;&lt;font style=&quot;vertical-align: inherit;&quot;&gt;&lt;font style=&quot;vertical-align: inherit;&quot;&gt;ESTADO&lt;/font&gt;&lt;/font&gt;&lt;/font&gt;&lt;/font&gt;&lt;/font&gt;&lt;/font&gt;" style="shape=parallelogram;html=1;strokeWidth=2;perimeter=parallelogramPerimeter;whiteSpace=wrap;rounded=1;arcSize=12;size=0.23;" vertex="1" parent="1">
          <mxGeometry x="330" y="210" width="140" height="40" as="geometry" />
        </mxCell>
        <mxCell id="mrt0JxKWjBjdY9cyOWCs-6" value="&lt;font style=&quot;vertical-align: inherit;&quot;&gt;&lt;font style=&quot;vertical-align: inherit;&quot;&gt;MOVE 0 FRETE&lt;/font&gt;&lt;/font&gt;" style="rounded=1;whiteSpace=wrap;html=1;absoluteArcSize=1;arcSize=14;strokeWidth=2;" vertex="1" parent="1">
          <mxGeometry x="285" y="270" width="230" height="50" as="geometry" />
        </mxCell>
        <mxCell id="mrt0JxKWjBjdY9cyOWCs-35" style="edgeStyle=orthogonalEdgeStyle;rounded=0;orthogonalLoop=1;jettySize=auto;html=1;exitX=1;exitY=0.5;exitDx=0;exitDy=0;exitPerimeter=0;entryX=0;entryY=0.5;entryDx=0;entryDy=0;" edge="1" parent="1" source="mrt0JxKWjBjdY9cyOWCs-7" target="mrt0JxKWjBjdY9cyOWCs-10">
          <mxGeometry relative="1" as="geometry" />
        </mxCell>
        <mxCell id="mrt0JxKWjBjdY9cyOWCs-7" value="&lt;font style=&quot;vertical-align: inherit;&quot;&gt;&lt;font style=&quot;vertical-align: inherit;&quot;&gt;FRETE SP&lt;/font&gt;&lt;/font&gt;" style="strokeWidth=2;html=1;shape=mxgraph.flowchart.decision;whiteSpace=wrap;" vertex="1" parent="1">
          <mxGeometry x="350" y="340" width="100" height="100" as="geometry" />
        </mxCell>
        <mxCell id="mrt0JxKWjBjdY9cyOWCs-34" style="edgeStyle=orthogonalEdgeStyle;rounded=0;orthogonalLoop=1;jettySize=auto;html=1;exitX=1;exitY=0.5;exitDx=0;exitDy=0;exitPerimeter=0;entryX=0;entryY=0.5;entryDx=0;entryDy=0;" edge="1" parent="1" source="mrt0JxKWjBjdY9cyOWCs-8" target="mrt0JxKWjBjdY9cyOWCs-11">
          <mxGeometry relative="1" as="geometry" />
        </mxCell>
        <mxCell id="mrt0JxKWjBjdY9cyOWCs-8" value="&lt;font style=&quot;vertical-align: inherit;&quot;&gt;&lt;font style=&quot;vertical-align: inherit;&quot;&gt;&lt;font style=&quot;vertical-align: inherit;&quot;&gt;&lt;font style=&quot;vertical-align: inherit;&quot;&gt;FRETE MG&lt;/font&gt;&lt;/font&gt;&lt;/font&gt;&lt;/font&gt;" style="strokeWidth=2;html=1;shape=mxgraph.flowchart.decision;whiteSpace=wrap;" vertex="1" parent="1">
          <mxGeometry x="350" y="460" width="100" height="100" as="geometry" />
        </mxCell>
        <mxCell id="mrt0JxKWjBjdY9cyOWCs-33" style="edgeStyle=orthogonalEdgeStyle;rounded=0;orthogonalLoop=1;jettySize=auto;html=1;exitX=1;exitY=0.5;exitDx=0;exitDy=0;exitPerimeter=0;entryX=0;entryY=0.5;entryDx=0;entryDy=0;" edge="1" parent="1" source="mrt0JxKWjBjdY9cyOWCs-9" target="mrt0JxKWjBjdY9cyOWCs-12">
          <mxGeometry relative="1" as="geometry" />
        </mxCell>
        <mxCell id="mrt0JxKWjBjdY9cyOWCs-9" value="&lt;font style=&quot;vertical-align: inherit;&quot;&gt;&lt;font style=&quot;vertical-align: inherit;&quot;&gt;&lt;font style=&quot;vertical-align: inherit;&quot;&gt;&lt;font style=&quot;vertical-align: inherit;&quot;&gt;FRETE RJ&lt;/font&gt;&lt;/font&gt;&lt;/font&gt;&lt;/font&gt;" style="strokeWidth=2;html=1;shape=mxgraph.flowchart.decision;whiteSpace=wrap;" vertex="1" parent="1">
          <mxGeometry x="350" y="580" width="100" height="100" as="geometry" />
        </mxCell>
        <mxCell id="mrt0JxKWjBjdY9cyOWCs-10" value="&lt;font style=&quot;vertical-align: inherit;&quot;&gt;&lt;font style=&quot;vertical-align: inherit;&quot;&gt;FRETE 10%&lt;/font&gt;&lt;/font&gt;" style="rounded=1;whiteSpace=wrap;html=1;absoluteArcSize=1;arcSize=14;strokeWidth=2;" vertex="1" parent="1">
          <mxGeometry x="490" y="370" width="210" height="40" as="geometry" />
        </mxCell>
        <mxCell id="mrt0JxKWjBjdY9cyOWCs-11" value="&lt;font style=&quot;vertical-align: inherit;&quot;&gt;&lt;font style=&quot;vertical-align: inherit;&quot;&gt;&lt;font style=&quot;vertical-align: inherit;&quot;&gt;&lt;font style=&quot;vertical-align: inherit;&quot;&gt;FRETE 15%&lt;/font&gt;&lt;/font&gt;&lt;/font&gt;&lt;/font&gt;" style="rounded=1;whiteSpace=wrap;html=1;absoluteArcSize=1;arcSize=14;strokeWidth=2;" vertex="1" parent="1">
          <mxGeometry x="490" y="490" width="210" height="40" as="geometry" />
        </mxCell>
        <mxCell id="mrt0JxKWjBjdY9cyOWCs-12" value="&lt;font style=&quot;vertical-align: inherit;&quot;&gt;&lt;font style=&quot;vertical-align: inherit;&quot;&gt;&lt;font style=&quot;vertical-align: inherit;&quot;&gt;&lt;font style=&quot;vertical-align: inherit;&quot;&gt;FRETE 20%&lt;/font&gt;&lt;/font&gt;&lt;/font&gt;&lt;/font&gt;" style="rounded=1;whiteSpace=wrap;html=1;absoluteArcSize=1;arcSize=14;strokeWidth=2;" vertex="1" parent="1">
          <mxGeometry x="490" y="610" width="210" height="40" as="geometry" />
        </mxCell>
        <mxCell id="mrt0JxKWjBjdY9cyOWCs-13" value="" style="strokeWidth=2;html=1;shape=mxgraph.flowchart.start_2;whiteSpace=wrap;" vertex="1" parent="1">
          <mxGeometry x="740" y="365" width="50" height="50" as="geometry" />
        </mxCell>
        <mxCell id="mrt0JxKWjBjdY9cyOWCs-14" value="" style="strokeWidth=2;html=1;shape=mxgraph.flowchart.start_2;whiteSpace=wrap;" vertex="1" parent="1">
          <mxGeometry x="740" y="485" width="50" height="50" as="geometry" />
        </mxCell>
        <mxCell id="mrt0JxKWjBjdY9cyOWCs-15" value="" style="strokeWidth=2;html=1;shape=mxgraph.flowchart.start_2;whiteSpace=wrap;" vertex="1" parent="1">
          <mxGeometry x="740" y="605" width="50" height="50" as="geometry" />
        </mxCell>
        <mxCell id="mrt0JxKWjBjdY9cyOWCs-16" value="" style="strokeWidth=2;html=1;shape=mxgraph.flowchart.start_2;whiteSpace=wrap;" vertex="1" parent="1">
          <mxGeometry x="375" y="700" width="50" height="50" as="geometry" />
        </mxCell>
        <mxCell id="mrt0JxKWjBjdY9cyOWCs-17" value="&lt;font style=&quot;vertical-align: inherit;&quot;&gt;&lt;font style=&quot;vertical-align: inherit;&quot;&gt;&lt;font style=&quot;vertical-align: inherit;&quot;&gt;&lt;font style=&quot;vertical-align: inherit;&quot;&gt;&lt;font style=&quot;vertical-align: inherit;&quot;&gt;&lt;font style=&quot;vertical-align: inherit;&quot;&gt;FRETE 0?&lt;/font&gt;&lt;/font&gt;&lt;/font&gt;&lt;/font&gt;&lt;/font&gt;&lt;/font&gt;" style="strokeWidth=2;html=1;shape=mxgraph.flowchart.decision;whiteSpace=wrap;" vertex="1" parent="1">
          <mxGeometry x="350" y="770" width="100" height="100" as="geometry" />
        </mxCell>
        <mxCell id="mrt0JxKWjBjdY9cyOWCs-18" value="&lt;font style=&quot;vertical-align: inherit;&quot;&gt;&lt;font style=&quot;vertical-align: inherit;&quot;&gt;NÃO Ã POSSIVEL ENTREGAR. RETIRAR NA LOJA&lt;/font&gt;&lt;/font&gt;" style="strokeWidth=2;html=1;shape=mxgraph.flowchart.display;whiteSpace=wrap;" vertex="1" parent="1">
          <mxGeometry x="486" y="870" width="165" height="90" as="geometry" />
        </mxCell>
        <mxCell id="mrt0JxKWjBjdY9cyOWCs-19" value="&lt;font style=&quot;vertical-align: inherit;&quot;&gt;&lt;font style=&quot;vertical-align: inherit;&quot;&gt;PODUTO&lt;/font&gt;&lt;/font&gt;&lt;div&gt;&lt;font style=&quot;vertical-align: inherit;&quot;&gt;&lt;font style=&quot;vertical-align: inherit;&quot;&gt;&lt;font style=&quot;vertical-align: inherit;&quot;&gt;&lt;font style=&quot;vertical-align: inherit;&quot;&gt;VALOR&lt;/font&gt;&lt;/font&gt;&lt;/font&gt;&lt;/font&gt;&lt;/div&gt;&lt;div&gt;&lt;font style=&quot;vertical-align: inherit;&quot;&gt;&lt;font style=&quot;vertical-align: inherit;&quot;&gt;&lt;font style=&quot;vertical-align: inherit;&quot;&gt;&lt;font style=&quot;vertical-align: inherit;&quot;&gt;&lt;font style=&quot;vertical-align: inherit;&quot;&gt;&lt;font style=&quot;vertical-align: inherit;&quot;&gt;ESTADO&lt;/font&gt;&lt;/font&gt;&lt;/font&gt;&lt;/font&gt;&lt;/font&gt;&lt;/font&gt;&lt;/div&gt;&lt;div&gt;&lt;font style=&quot;vertical-align: inherit;&quot;&gt;&lt;font style=&quot;vertical-align: inherit;&quot;&gt;&lt;font style=&quot;vertical-align: inherit;&quot;&gt;&lt;font style=&quot;vertical-align: inherit;&quot;&gt;&lt;font style=&quot;vertical-align: inherit;&quot;&gt;&lt;font style=&quot;vertical-align: inherit;&quot;&gt;&lt;font style=&quot;vertical-align: inherit;&quot;&gt;&lt;font style=&quot;vertical-align: inherit;&quot;&gt;VALOR DO FRETE&lt;/font&gt;&lt;/font&gt;&lt;/font&gt;&lt;/font&gt;&lt;/font&gt;&lt;/font&gt;&lt;/font&gt;&lt;/font&gt;&lt;/div&gt;" style="strokeWidth=2;html=1;shape=mxgraph.flowchart.display;whiteSpace=wrap;" vertex="1" parent="1">
          <mxGeometry x="160" y="870" width="180" height="100" as="geometry" />
        </mxCell>
        <mxCell id="mrt0JxKWjBjdY9cyOWCs-20" value="" style="strokeWidth=2;html=1;shape=mxgraph.flowchart.start_2;whiteSpace=wrap;" vertex="1" parent="1">
          <mxGeometry x="375" y="990" width="50" height="50" as="geometry" />
        </mxCell>
        <mxCell id="mrt0JxKWjBjdY9cyOWCs-23" style="edgeStyle=orthogonalEdgeStyle;rounded=0;orthogonalLoop=1;jettySize=auto;html=1;exitX=0;exitY=0.5;exitDx=0;exitDy=0;exitPerimeter=0;entryX=0.5;entryY=0;entryDx=0;entryDy=0;entryPerimeter=0;" edge="1" parent="1" source="mrt0JxKWjBjdY9cyOWCs-17" target="mrt0JxKWjBjdY9cyOWCs-19">
          <mxGeometry relative="1" as="geometry" />
        </mxCell>
        <mxCell id="mrt0JxKWjBjdY9cyOWCs-24" value="&lt;font style=&quot;vertical-align: inherit;&quot;&gt;&lt;font style=&quot;vertical-align: inherit;&quot;&gt;NÃO&lt;/font&gt;&lt;/font&gt;" style="edgeLabel;html=1;align=center;verticalAlign=middle;resizable=0;points=[];" vertex="1" connectable="0" parent="mrt0JxKWjBjdY9cyOWCs-23">
          <mxGeometry x="-0.355" y="-7" relative="1" as="geometry">
            <mxPoint as="offset" />
          </mxGeometry>
        </mxCell>
        <mxCell id="mrt0JxKWjBjdY9cyOWCs-26" style="edgeStyle=orthogonalEdgeStyle;rounded=0;orthogonalLoop=1;jettySize=auto;html=1;exitX=0.5;exitY=1;exitDx=0;exitDy=0;exitPerimeter=0;entryX=0;entryY=0.5;entryDx=0;entryDy=0;entryPerimeter=0;" edge="1" parent="1" source="mrt0JxKWjBjdY9cyOWCs-19" target="mrt0JxKWjBjdY9cyOWCs-20">
          <mxGeometry relative="1" as="geometry" />
        </mxCell>
        <mxCell id="mrt0JxKWjBjdY9cyOWCs-27" style="edgeStyle=orthogonalEdgeStyle;rounded=0;orthogonalLoop=1;jettySize=auto;html=1;exitX=0.5;exitY=1;exitDx=0;exitDy=0;exitPerimeter=0;entryX=0.5;entryY=0;entryDx=0;entryDy=0;entryPerimeter=0;" edge="1" parent="1" source="mrt0JxKWjBjdY9cyOWCs-20" target="mrt0JxKWjBjdY9cyOWCs-2">
          <mxGeometry relative="1" as="geometry" />
        </mxCell>
        <mxCell id="mrt0JxKWjBjdY9cyOWCs-28" style="edgeStyle=orthogonalEdgeStyle;rounded=0;orthogonalLoop=1;jettySize=auto;html=1;exitX=0.5;exitY=1;exitDx=0;exitDy=0;exitPerimeter=0;entryX=0.5;entryY=0;entryDx=0;entryDy=0;entryPerimeter=0;" edge="1" parent="1" source="mrt0JxKWjBjdY9cyOWCs-16" target="mrt0JxKWjBjdY9cyOWCs-17">
          <mxGeometry relative="1" as="geometry" />
        </mxCell>
        <mxCell id="mrt0JxKWjBjdY9cyOWCs-29" style="edgeStyle=orthogonalEdgeStyle;rounded=0;orthogonalLoop=1;jettySize=auto;html=1;exitX=0.5;exitY=1;exitDx=0;exitDy=0;exitPerimeter=0;entryX=1;entryY=0.5;entryDx=0;entryDy=0;entryPerimeter=0;" edge="1" parent="1" source="mrt0JxKWjBjdY9cyOWCs-15" target="mrt0JxKWjBjdY9cyOWCs-16">
          <mxGeometry relative="1" as="geometry" />
        </mxCell>
        <mxCell id="mrt0JxKWjBjdY9cyOWCs-30" style="edgeStyle=orthogonalEdgeStyle;rounded=0;orthogonalLoop=1;jettySize=auto;html=1;exitX=0.5;exitY=1;exitDx=0;exitDy=0;exitPerimeter=0;entryX=0.5;entryY=0;entryDx=0;entryDy=0;entryPerimeter=0;" edge="1" parent="1" source="mrt0JxKWjBjdY9cyOWCs-9" target="mrt0JxKWjBjdY9cyOWCs-16">
          <mxGeometry relative="1" as="geometry" />
        </mxCell>
        <mxCell id="mrt0JxKWjBjdY9cyOWCs-31" style="edgeStyle=orthogonalEdgeStyle;rounded=0;orthogonalLoop=1;jettySize=auto;html=1;exitX=0.5;exitY=1;exitDx=0;exitDy=0;exitPerimeter=0;entryX=0.5;entryY=0;entryDx=0;entryDy=0;entryPerimeter=0;" edge="1" parent="1" source="mrt0JxKWjBjdY9cyOWCs-8" target="mrt0JxKWjBjdY9cyOWCs-9">
          <mxGeometry relative="1" as="geometry" />
        </mxCell>
        <mxCell id="mrt0JxKWjBjdY9cyOWCs-32" style="edgeStyle=orthogonalEdgeStyle;rounded=0;orthogonalLoop=1;jettySize=auto;html=1;exitX=0.5;exitY=1;exitDx=0;exitDy=0;exitPerimeter=0;entryX=0.5;entryY=0;entryDx=0;entryDy=0;entryPerimeter=0;" edge="1" parent="1" source="mrt0JxKWjBjdY9cyOWCs-7" target="mrt0JxKWjBjdY9cyOWCs-8">
          <mxGeometry relative="1" as="geometry" />
        </mxCell>
        <mxCell id="mrt0JxKWjBjdY9cyOWCs-37" style="edgeStyle=orthogonalEdgeStyle;rounded=0;orthogonalLoop=1;jettySize=auto;html=1;exitX=1;exitY=0.5;exitDx=0;exitDy=0;entryX=0;entryY=0.5;entryDx=0;entryDy=0;entryPerimeter=0;" edge="1" parent="1" source="mrt0JxKWjBjdY9cyOWCs-10" target="mrt0JxKWjBjdY9cyOWCs-13">
          <mxGeometry relative="1" as="geometry" />
        </mxCell>
        <mxCell id="mrt0JxKWjBjdY9cyOWCs-38" style="edgeStyle=orthogonalEdgeStyle;rounded=0;orthogonalLoop=1;jettySize=auto;html=1;exitX=1;exitY=0.5;exitDx=0;exitDy=0;entryX=0;entryY=0.5;entryDx=0;entryDy=0;entryPerimeter=0;" edge="1" parent="1" source="mrt0JxKWjBjdY9cyOWCs-11" target="mrt0JxKWjBjdY9cyOWCs-14">
          <mxGeometry relative="1" as="geometry" />
        </mxCell>
        <mxCell id="mrt0JxKWjBjdY9cyOWCs-39" style="edgeStyle=orthogonalEdgeStyle;rounded=0;orthogonalLoop=1;jettySize=auto;html=1;exitX=1;exitY=0.5;exitDx=0;exitDy=0;entryX=0;entryY=0.5;entryDx=0;entryDy=0;entryPerimeter=0;" edge="1" parent="1" source="mrt0JxKWjBjdY9cyOWCs-12" target="mrt0JxKWjBjdY9cyOWCs-15">
          <mxGeometry relative="1" as="geometry" />
        </mxCell>
        <mxCell id="mrt0JxKWjBjdY9cyOWCs-40" style="edgeStyle=orthogonalEdgeStyle;rounded=0;orthogonalLoop=1;jettySize=auto;html=1;exitX=0.5;exitY=1;exitDx=0;exitDy=0;exitPerimeter=0;entryX=0.5;entryY=0;entryDx=0;entryDy=0;entryPerimeter=0;" edge="1" parent="1" source="mrt0JxKWjBjdY9cyOWCs-13" target="mrt0JxKWjBjdY9cyOWCs-14">
          <mxGeometry relative="1" as="geometry" />
        </mxCell>
        <mxCell id="mrt0JxKWjBjdY9cyOWCs-41" style="edgeStyle=orthogonalEdgeStyle;rounded=0;orthogonalLoop=1;jettySize=auto;html=1;exitX=0.5;exitY=1;exitDx=0;exitDy=0;exitPerimeter=0;entryX=0.5;entryY=0;entryDx=0;entryDy=0;entryPerimeter=0;" edge="1" parent="1" source="mrt0JxKWjBjdY9cyOWCs-14" target="mrt0JxKWjBjdY9cyOWCs-15">
          <mxGeometry relative="1" as="geometry" />
        </mxCell>
        <mxCell id="mrt0JxKWjBjdY9cyOWCs-42" style="edgeStyle=orthogonalEdgeStyle;rounded=0;orthogonalLoop=1;jettySize=auto;html=1;exitX=0.5;exitY=1;exitDx=0;exitDy=0;entryX=0.5;entryY=0;entryDx=0;entryDy=0;entryPerimeter=0;" edge="1" parent="1" source="mrt0JxKWjBjdY9cyOWCs-6" target="mrt0JxKWjBjdY9cyOWCs-7">
          <mxGeometry relative="1" as="geometry" />
        </mxCell>
        <mxCell id="mrt0JxKWjBjdY9cyOWCs-47" style="edgeStyle=orthogonalEdgeStyle;rounded=0;orthogonalLoop=1;jettySize=auto;html=1;exitX=1;exitY=0.5;exitDx=0;exitDy=0;exitPerimeter=0;entryX=0.5;entryY=0;entryDx=0;entryDy=0;entryPerimeter=0;" edge="1" parent="1" source="mrt0JxKWjBjdY9cyOWCs-17" target="mrt0JxKWjBjdY9cyOWCs-18">
          <mxGeometry relative="1" as="geometry" />
        </mxCell>
        <mxCell id="mrt0JxKWjBjdY9cyOWCs-48" value="&lt;font style=&quot;vertical-align: inherit;&quot;&gt;&lt;font style=&quot;vertical-align: inherit;&quot;&gt;SIM&lt;/font&gt;&lt;/font&gt;" style="edgeLabel;html=1;align=center;verticalAlign=middle;resizable=0;points=[];" vertex="1" connectable="0" parent="mrt0JxKWjBjdY9cyOWCs-47">
          <mxGeometry x="-0.3175" y="-7" relative="1" as="geometry">
            <mxPoint y="1" as="offset" />
          </mxGeometry>
        </mxCell>
        <mxCell id="mrt0JxKWjBjdY9cyOWCs-49" style="edgeStyle=orthogonalEdgeStyle;rounded=0;orthogonalLoop=1;jettySize=auto;html=1;exitX=0.5;exitY=1;exitDx=0;exitDy=0;exitPerimeter=0;entryX=1;entryY=0.5;entryDx=0;entryDy=0;entryPerimeter=0;" edge="1" parent="1" source="mrt0JxKWjBjdY9cyOWCs-18" target="mrt0JxKWjBjdY9cyOWCs-20">
          <mxGeometry relative="1" as="geometry" />
        </mxCell>
      </root>
    </mxGraphModel>
  </diagram>
</mxfile>
